<svg xmlns="http://www.w3.org/2000/svg" xmlns:xlink="http://www.w3.org/1999/xlink" zoomAndPan="magnify" preserveAspectRatio="xMidYMid meet" version="1.0" viewBox="17.34 124.14 335.6 127.5"><defs><g/><clipPath id="cff3ef9b36"><path d="M 17.335938 124.136719 L 144.835938 124.136719 L 144.835938 251.636719 L 17.335938 251.636719 Z M 17.335938 124.136719 " clip-rule="nonzero"/></clipPath></defs><g clip-path="url(#cff3ef9b36)"><path fill="#222222" d="M 144.601562 187.769531 C 144.601562 188.8125 144.574219 189.851562 144.523438 190.890625 C 144.472656 191.933594 144.398438 192.96875 144.296875 194.007812 C 144.191406 195.042969 144.066406 196.078125 143.914062 197.105469 C 143.761719 198.136719 143.582031 199.164062 143.378906 200.183594 C 143.175781 201.203125 142.949219 202.222656 142.695312 203.230469 C 142.441406 204.242188 142.164062 205.246094 141.863281 206.242188 C 141.558594 207.238281 141.234375 208.226562 140.882812 209.207031 C 140.53125 210.1875 140.15625 211.160156 139.757812 212.121094 C 139.359375 213.082031 138.9375 214.035156 138.492188 214.976562 C 138.046875 215.917969 137.578125 216.847656 137.085938 217.765625 C 136.597656 218.683594 136.082031 219.589844 135.546875 220.484375 C 135.011719 221.375 134.457031 222.257812 133.878906 223.121094 C 133.296875 223.988281 132.699219 224.839844 132.078125 225.675781 C 131.457031 226.511719 130.816406 227.332031 130.15625 228.136719 C 129.496094 228.941406 128.816406 229.730469 128.117188 230.503906 C 127.417969 231.273438 126.699219 232.027344 125.964844 232.765625 C 125.226562 233.5 124.472656 234.21875 123.703125 234.917969 C 122.929688 235.617188 122.140625 236.296875 121.335938 236.957031 C 120.53125 237.617188 119.710938 238.257812 118.875 238.878906 C 118.039062 239.5 117.1875 240.101562 116.320312 240.679688 C 115.457031 241.257812 114.574219 241.8125 113.683594 242.347656 C 112.789062 242.882812 111.882812 243.398438 110.964844 243.890625 C 110.046875 244.378906 109.117188 244.847656 108.175781 245.292969 C 107.234375 245.738281 106.28125 246.160156 105.320312 246.558594 C 104.359375 246.957031 103.386719 247.332031 102.40625 247.683594 C 101.425781 248.035156 100.4375 248.359375 99.441406 248.664062 C 98.445312 248.964844 97.441406 249.242188 96.429688 249.496094 C 95.421875 249.75 94.402344 249.976562 93.382812 250.179688 C 92.363281 250.382812 91.335938 250.5625 90.304688 250.714844 C 89.277344 250.867188 88.242188 250.992188 87.207031 251.097656 C 86.167969 251.199219 85.132812 251.273438 84.089844 251.324219 C 83.050781 251.375 82.011719 251.402344 80.96875 251.402344 C 79.925781 251.402344 78.886719 251.375 77.847656 251.324219 C 76.804688 251.273438 75.769531 251.199219 74.730469 251.097656 C 73.695312 250.992188 72.660156 250.867188 71.632812 250.714844 C 70.601562 250.5625 69.574219 250.382812 68.554688 250.179688 C 67.53125 249.976562 66.515625 249.75 65.507812 249.496094 C 64.496094 249.242188 63.492188 248.964844 62.496094 248.664062 C 61.5 248.359375 60.511719 248.035156 59.53125 247.683594 C 58.550781 247.332031 57.578125 246.957031 56.617188 246.558594 C 55.65625 246.160156 54.703125 245.738281 53.761719 245.292969 C 52.820312 244.847656 51.890625 244.378906 50.972656 243.886719 C 50.054688 243.398438 49.148438 242.882812 48.253906 242.347656 C 47.363281 241.8125 46.480469 241.257812 45.617188 240.679688 C 44.75 240.101562 43.898438 239.5 43.0625 238.878906 C 42.226562 238.257812 41.40625 237.617188 40.601562 236.957031 C 39.796875 236.296875 39.007812 235.617188 38.234375 234.917969 C 37.464844 234.21875 36.710938 233.5 35.972656 232.765625 C 35.238281 232.027344 34.519531 231.273438 33.820312 230.503906 C 33.121094 229.730469 32.441406 228.941406 31.78125 228.136719 C 31.121094 227.332031 30.480469 226.511719 29.859375 225.675781 C 29.238281 224.839844 28.636719 223.988281 28.058594 223.121094 C 27.480469 222.257812 26.925781 221.375 26.390625 220.484375 C 25.855469 219.589844 25.339844 218.683594 24.847656 217.765625 C 24.359375 216.847656 23.890625 215.917969 23.445312 214.976562 C 23 214.035156 22.578125 213.082031 22.179688 212.121094 C 21.78125 211.160156 21.40625 210.1875 21.054688 209.207031 C 20.703125 208.226562 20.378906 207.238281 20.074219 206.242188 C 19.773438 205.246094 19.496094 204.242188 19.242188 203.230469 C 18.988281 202.222656 18.761719 201.203125 18.558594 200.183594 C 18.355469 199.164062 18.175781 198.136719 18.023438 197.105469 C 17.871094 196.078125 17.746094 195.042969 17.640625 194.007812 C 17.539062 192.96875 17.464844 191.933594 17.414062 190.890625 C 17.363281 189.851562 17.335938 188.8125 17.335938 187.769531 C 17.335938 186.726562 17.363281 185.6875 17.414062 184.648438 C 17.464844 183.605469 17.539062 182.570312 17.640625 181.53125 C 17.746094 180.496094 17.871094 179.460938 18.023438 178.433594 C 18.175781 177.402344 18.355469 176.375 18.558594 175.355469 C 18.761719 174.335938 18.988281 173.316406 19.242188 172.308594 C 19.496094 171.296875 19.773438 170.292969 20.074219 169.296875 C 20.378906 168.300781 20.703125 167.3125 21.054688 166.332031 C 21.40625 165.351562 21.78125 164.378906 22.179688 163.417969 C 22.578125 162.457031 23 161.503906 23.445312 160.5625 C 23.890625 159.621094 24.359375 158.691406 24.847656 157.773438 C 25.339844 156.855469 25.855469 155.949219 26.390625 155.054688 C 26.925781 154.164062 27.480469 153.28125 28.058594 152.417969 C 28.636719 151.550781 29.238281 150.699219 29.859375 149.863281 C 30.480469 149.027344 31.121094 148.207031 31.78125 147.402344 C 32.441406 146.597656 33.121094 145.808594 33.820312 145.035156 C 34.519531 144.265625 35.238281 143.511719 35.972656 142.773438 C 36.710938 142.039062 37.464844 141.320312 38.234375 140.621094 C 39.007812 139.921875 39.796875 139.242188 40.601562 138.582031 C 41.40625 137.921875 42.226562 137.28125 43.0625 136.660156 C 43.898438 136.039062 44.75 135.4375 45.617188 134.859375 C 46.480469 134.28125 47.363281 133.726562 48.253906 133.191406 C 49.148438 132.65625 50.054688 132.140625 50.972656 131.652344 C 51.890625 131.160156 52.820312 130.691406 53.761719 130.246094 C 54.703125 129.800781 55.65625 129.378906 56.617188 128.980469 C 57.578125 128.582031 58.550781 128.207031 59.53125 127.855469 C 60.511719 127.503906 61.5 127.179688 62.496094 126.875 C 63.492188 126.574219 64.496094 126.296875 65.507812 126.042969 C 66.515625 125.789062 67.53125 125.5625 68.554688 125.359375 C 69.574219 125.15625 70.601562 124.976562 71.632812 124.824219 C 72.660156 124.671875 73.695312 124.546875 74.730469 124.441406 C 75.769531 124.339844 76.804688 124.265625 77.847656 124.214844 C 78.886719 124.164062 79.925781 124.136719 80.96875 124.136719 C 82.011719 124.136719 83.050781 124.164062 84.089844 124.214844 C 85.132812 124.265625 86.167969 124.339844 87.207031 124.441406 C 88.242188 124.546875 89.277344 124.671875 90.304688 124.824219 C 91.335938 124.976562 92.363281 125.15625 93.382812 125.359375 C 94.402344 125.5625 95.421875 125.789062 96.429688 126.042969 C 97.441406 126.296875 98.445312 126.574219 99.441406 126.875 C 100.4375 127.179688 101.425781 127.503906 102.40625 127.855469 C 103.386719 128.207031 104.359375 128.582031 105.320312 128.980469 C 106.28125 129.378906 107.234375 129.800781 108.175781 130.246094 C 109.117188 130.691406 110.046875 131.160156 110.964844 131.652344 C 111.882812 132.140625 112.789062 132.65625 113.683594 133.191406 C 114.574219 133.726562 115.457031 134.28125 116.320312 134.859375 C 117.1875 135.4375 118.039062 136.039062 118.875 136.660156 C 119.710938 137.28125 120.53125 137.921875 121.335938 138.582031 C 122.140625 139.242188 122.929688 139.921875 123.703125 140.621094 C 124.472656 141.320312 125.226562 142.039062 125.964844 142.773438 C 126.699219 143.511719 127.417969 144.265625 128.117188 145.035156 C 128.816406 145.808594 129.496094 146.597656 130.15625 147.402344 C 130.816406 148.207031 131.457031 149.027344 132.078125 149.863281 C 132.699219 150.699219 133.296875 151.550781 133.878906 152.417969 C 134.457031 153.28125 135.011719 154.164062 135.546875 155.054688 C 136.082031 155.949219 136.597656 156.855469 137.085938 157.773438 C 137.578125 158.691406 138.046875 159.621094 138.492188 160.5625 C 138.9375 161.503906 139.359375 162.457031 139.757812 163.417969 C 140.15625 164.378906 140.53125 165.351562 140.882812 166.332031 C 141.234375 167.3125 141.558594 168.300781 141.863281 169.296875 C 142.164062 170.292969 142.441406 171.296875 142.695312 172.308594 C 142.949219 173.316406 143.175781 174.335938 143.378906 175.355469 C 143.582031 176.375 143.761719 177.402344 143.914062 178.433594 C 144.066406 179.460938 144.191406 180.496094 144.296875 181.53125 C 144.398438 182.570312 144.472656 183.605469 144.523438 184.648438 C 144.574219 185.6875 144.601562 186.726562 144.601562 187.769531 Z M 144.601562 187.769531 " fill-opacity="1" fill-rule="nonzero"/></g><path fill="#22a39f" d="M 42.886719 152.289062 L 42.886719 215.726562 C 44.320312 213.875 46.355469 212.613281 48.625 212.175781 L 48.625 146.5 C 45.382812 146.914062 42.886719 149.347656 42.886719 152.289062 Z M 42.886719 152.289062 " fill-opacity="1" fill-rule="evenodd"/><path fill="#22a39f" d="M 50.609375 146.433594 L 50.609375 212 L 103.75 212 L 103.75 204.953125 L 102.261719 202.378906 C 102.078125 202.066406 101.96875 201.722656 101.925781 201.375 C 98.199219 202.640625 94.230469 202.761719 90.421875 201.742188 C 79.828125 198.902344 73.550781 188.027344 76.390625 177.4375 C 79.5625 165.597656 92.566406 159.453125 103.75 164.492188 L 103.75 146.425781 Z M 50.609375 146.433594 " fill-opacity="1" fill-rule="evenodd"/><path fill="#22a39f" d="M 101.394531 213.984375 L 50.4375 213.984375 C 46.265625 213.984375 42.871094 217.390625 42.886719 221.589844 C 42.894531 225.714844 46.285156 229.109375 50.4375 229.109375 L 101.398438 229.109375 C 99.988281 227.171875 99.34375 224.277344 99.34375 221.550781 C 99.339844 218.8125 99.988281 215.921875 101.394531 213.984375 Z M 101.394531 213.984375 " fill-opacity="1" fill-rule="evenodd"/><path fill="#22a39f" d="M 103.980469 201.386719 L 115.308594 221.011719 C 115.492188 221.320312 115.902344 221.429688 116.210938 221.253906 L 118.726562 219.800781 C 119.035156 219.621094 119.144531 219.207031 118.96875 218.898438 L 107.636719 199.273438 C 107.515625 199.066406 107.289062 198.949219 107.054688 198.949219 C 106.945312 198.949219 106.835938 198.972656 106.734375 199.035156 L 104.21875 200.488281 C 103.960938 200.601562 103.777344 201.039062 103.980469 201.386719 Z M 103.980469 201.386719 " fill-opacity="1" fill-rule="evenodd"/><path fill="#22a39f" d="M 87.828125 169.183594 Z M 108.949219 174.84375 C 113.222656 182.246094 110.691406 191.691406 103.292969 195.96875 C 100.910156 197.347656 98.265625 198.050781 95.585938 198.050781 C 90.058594 198.050781 84.949219 195.132812 82.167969 190.308594 C 77.902344 182.925781 80.445312 173.449219 87.828125 169.183594 C 95.207031 164.917969 104.683594 167.460938 108.949219 174.84375 Z M 86.625 167.105469 C 78.078125 172.039062 75.152344 182.953125 80.089844 191.503906 C 82.472656 195.636719 86.324219 198.589844 90.933594 199.824219 C 95.578125 201.070312 100.386719 200.417969 104.539062 198.007812 C 113.027344 193.070312 115.9375 182.152344 111.023438 173.644531 C 109.402344 170.835938 107.101562 168.570312 104.347656 167.019531 C 104.289062 166.992188 104.230469 166.960938 104.175781 166.925781 C 102.925781 166.242188 101.59375 165.703125 100.183594 165.324219 C 95.59375 164.09375 90.785156 164.710938 86.625 167.105469 Z M 86.625 167.105469 " fill-opacity="1" fill-rule="evenodd"/><path fill="#22a39f" d="M 88.816406 170.902344 C 82.378906 174.621094 80.167969 182.878906 83.882812 189.316406 C 87.609375 195.769531 95.839844 197.976562 102.296875 194.25 C 108.746094 190.523438 110.953125 182.289062 107.226562 175.835938 C 103.515625 169.398438 95.253906 167.183594 88.816406 170.902344 Z M 88.816406 170.902344 " fill-opacity="1" fill-rule="evenodd"/><g fill="#222222" fill-opacity="1"><g transform="translate(157.877821, 181.245767)"><g><path d="M 3.421875 0 L 3.421875 -36.3125 L 0 -44.84375 L 18.6875 -44.84375 C 23.707031 -44.84375 27.359375 -43.832031 29.640625 -41.8125 C 31.929688 -39.800781 33.078125 -37.09375 33.078125 -33.6875 C 33.078125 -31.488281 32.660156 -29.492188 31.828125 -27.703125 C 30.992188 -25.921875 29.414062 -24.429688 27.09375 -23.234375 L 27.09375 -23.109375 C 29.914062 -22.191406 31.914062 -20.835938 33.09375 -19.046875 C 34.28125 -17.265625 34.875 -14.921875 34.875 -12.015625 C 34.875 -8.160156 33.460938 -5.191406 30.640625 -3.109375 C 27.816406 -1.035156 23.519531 0 17.75 0 Z M 15.5625 -26.40625 L 16.125 -26.40625 C 18 -26.40625 19.359375 -26.769531 20.203125 -27.5 C 21.054688 -28.226562 21.484375 -29.503906 21.484375 -31.328125 C 21.484375 -33.191406 21.054688 -34.488281 20.203125 -35.21875 C 19.359375 -35.945312 18 -36.3125 16.125 -36.3125 L 15.5625 -36.3125 Z M 15.5625 -8.21875 L 16.1875 -8.21875 C 18.269531 -8.21875 19.796875 -8.601562 20.765625 -9.375 C 21.742188 -10.144531 22.234375 -11.503906 22.234375 -13.453125 C 22.234375 -15.441406 21.742188 -16.820312 20.765625 -17.59375 C 19.796875 -18.363281 18.269531 -18.75 16.1875 -18.75 L 15.5625 -18.75 Z M 15.5625 -8.21875 "/></g></g></g><g fill="#222222" fill-opacity="1"><g transform="translate(194.245787, 181.245767)"><g><path d="M 18.25 0.625 C 14.175781 0.625 10.894531 -0.0664062 8.40625 -1.453125 C 5.914062 -2.847656 4.097656 -5.21875 2.953125 -8.5625 C 1.816406 -11.90625 1.25 -16.503906 1.25 -22.359375 C 1.25 -28.210938 1.816406 -32.8125 2.953125 -36.15625 C 4.097656 -39.5 5.914062 -41.863281 8.40625 -43.25 C 10.894531 -44.644531 14.175781 -45.34375 18.25 -45.34375 C 22.320312 -45.34375 25.601562 -44.644531 28.09375 -43.25 C 30.582031 -41.863281 32.394531 -39.5 33.53125 -36.15625 C 34.675781 -32.8125 35.25 -28.210938 35.25 -22.359375 C 35.25 -16.503906 34.675781 -11.90625 33.53125 -8.5625 C 32.394531 -5.21875 30.582031 -2.847656 28.09375 -1.453125 C 25.601562 -0.0664062 22.320312 0.625 18.25 0.625 Z M 22.171875 -22.484375 C 22.171875 -26.054688 22.054688 -28.785156 21.828125 -30.671875 C 21.597656 -32.554688 21.203125 -33.863281 20.640625 -34.59375 C 20.085938 -35.320312 19.289062 -35.6875 18.25 -35.6875 C 17.25 -35.6875 16.457031 -35.320312 15.875 -34.59375 C 15.300781 -33.863281 14.898438 -32.554688 14.671875 -30.671875 C 14.441406 -28.785156 14.328125 -26.054688 14.328125 -22.484375 C 14.328125 -18.953125 14.441406 -16.207031 14.671875 -14.25 C 14.898438 -12.300781 15.300781 -10.941406 15.875 -10.171875 C 16.457031 -9.410156 17.25 -9.03125 18.25 -9.03125 C 19.289062 -9.03125 20.085938 -9.410156 20.640625 -10.171875 C 21.203125 -10.941406 21.597656 -12.300781 21.828125 -14.25 C 22.054688 -16.207031 22.171875 -18.953125 22.171875 -22.484375 Z M 22.171875 -22.484375 "/></g></g></g><g fill="#222222" fill-opacity="1"><g transform="translate(230.73831, 181.245767)"><g><path d="M 18.25 0.625 C 14.175781 0.625 10.894531 -0.0664062 8.40625 -1.453125 C 5.914062 -2.847656 4.097656 -5.21875 2.953125 -8.5625 C 1.816406 -11.90625 1.25 -16.503906 1.25 -22.359375 C 1.25 -28.210938 1.816406 -32.8125 2.953125 -36.15625 C 4.097656 -39.5 5.914062 -41.863281 8.40625 -43.25 C 10.894531 -44.644531 14.175781 -45.34375 18.25 -45.34375 C 22.320312 -45.34375 25.601562 -44.644531 28.09375 -43.25 C 30.582031 -41.863281 32.394531 -39.5 33.53125 -36.15625 C 34.675781 -32.8125 35.25 -28.210938 35.25 -22.359375 C 35.25 -16.503906 34.675781 -11.90625 33.53125 -8.5625 C 32.394531 -5.21875 30.582031 -2.847656 28.09375 -1.453125 C 25.601562 -0.0664062 22.320312 0.625 18.25 0.625 Z M 22.171875 -22.484375 C 22.171875 -26.054688 22.054688 -28.785156 21.828125 -30.671875 C 21.597656 -32.554688 21.203125 -33.863281 20.640625 -34.59375 C 20.085938 -35.320312 19.289062 -35.6875 18.25 -35.6875 C 17.25 -35.6875 16.457031 -35.320312 15.875 -34.59375 C 15.300781 -33.863281 14.898438 -32.554688 14.671875 -30.671875 C 14.441406 -28.785156 14.328125 -26.054688 14.328125 -22.484375 C 14.328125 -18.953125 14.441406 -16.207031 14.671875 -14.25 C 14.898438 -12.300781 15.300781 -10.941406 15.875 -10.171875 C 16.457031 -9.410156 17.25 -9.03125 18.25 -9.03125 C 19.289062 -9.03125 20.085938 -9.410156 20.640625 -10.171875 C 21.203125 -10.941406 21.597656 -12.300781 21.828125 -14.25 C 22.054688 -16.207031 22.171875 -18.953125 22.171875 -22.484375 Z M 22.171875 -22.484375 "/></g></g></g><g fill="#222222" fill-opacity="1"><g transform="translate(267.230834, 181.245767)"><g><path d="M 2.796875 -44.84375 L 14.953125 -44.84375 L 14.953125 -26.84375 L 21.609375 -44.84375 L 34.6875 -44.84375 L 26.34375 -23.109375 L 34.25 0 L 21.171875 0 L 14.953125 -19 L 14.953125 0 L 2.796875 0 Z M 2.796875 -44.84375 "/></g></g></g><g fill="#222222" fill-opacity="1"><g transform="translate(161.378579, 235.542176)"><g><path d="M 28.90625 -44.84375 L 27.03125 -34.875 L 15.5625 -34.875 L 15.5625 -26.40625 L 25.90625 -26.40625 L 24.046875 -16.4375 L 15.5625 -16.4375 L 15.5625 0 L 3.421875 0 L 3.421875 -36.3125 L 0 -44.84375 Z M 28.90625 -44.84375 "/></g></g></g><g fill="#222222" fill-opacity="1"><g transform="translate(190.896423, 235.542176)"><g><path d="M 2.796875 -44.84375 L 14.953125 -44.84375 L 14.953125 0 L 2.796875 0 Z M 2.796875 -44.84375 "/></g></g></g><g fill="#222222" fill-opacity="1"><g transform="translate(208.644483, 235.542176)"><g><path d="M 16.3125 -44.84375 L 25.09375 -19.25 L 25.09375 -44.84375 L 36.9375 -44.84375 L 36.9375 0 L 22.359375 0 L 14.390625 -23.296875 L 14.390625 0 L 2.546875 0 L 2.546875 -38.421875 L 0 -44.84375 Z M 16.3125 -44.84375 "/></g></g></g><g fill="#222222" fill-opacity="1"><g transform="translate(248.37525, 235.542176)"><g><path d="M 18.25 -44.84375 C 22.519531 -44.84375 25.960938 -44.1875 28.578125 -42.875 C 31.203125 -41.570312 33.113281 -39.351562 34.3125 -36.21875 C 35.519531 -33.082031 36.125 -28.773438 36.125 -23.296875 C 36.125 -17.398438 35.519531 -12.75 34.3125 -9.34375 C 33.113281 -5.9375 31.203125 -3.523438 28.578125 -2.109375 C 25.960938 -0.703125 22.519531 0 18.25 0 L 3.421875 0 L 3.421875 -36.3125 L 0 -44.84375 Z M 17.5 -9.96875 C 18.832031 -9.96875 19.898438 -10.367188 20.703125 -11.171875 C 21.515625 -11.984375 22.109375 -13.351562 22.484375 -15.28125 C 22.859375 -17.21875 23.046875 -19.890625 23.046875 -23.296875 C 23.046875 -26.410156 22.878906 -28.804688 22.546875 -30.484375 C 22.210938 -32.171875 21.648438 -33.320312 20.859375 -33.9375 C 20.078125 -34.5625 18.957031 -34.875 17.5 -34.875 L 15.5625 -34.875 L 15.5625 -9.96875 Z M 17.5 -9.96875 "/></g></g></g><g fill="#222222" fill-opacity="1"><g transform="translate(285.739597, 235.542176)"><g><path d="M 0 -44.84375 L 29.828125 -44.84375 L 27.96875 -34.875 L 15.5625 -34.875 L 15.5625 -28.03125 L 27.21875 -28.03125 L 25.34375 -18.0625 L 15.5625 -18.0625 L 15.5625 -9.96875 L 30.265625 -9.96875 L 28.40625 0 L 3.421875 0 L 3.421875 -36.3125 Z M 0 -44.84375 "/></g></g></g><g fill="#222222" fill-opacity="1"><g transform="translate(316.938822, 235.542176)"><g><path d="M 17.6875 -44.84375 C 21.34375 -44.84375 24.394531 -44.375 26.84375 -43.4375 C 29.289062 -42.507812 31.125 -40.953125 32.34375 -38.765625 C 33.570312 -36.585938 34.1875 -33.609375 34.1875 -29.828125 C 34.1875 -26.671875 33.707031 -24.085938 32.75 -22.078125 C 31.800781 -20.066406 30.351562 -18.457031 28.40625 -17.25 L 36 0 L 22.484375 0 L 17.5625 -14.578125 L 15.5625 -14.578125 L 15.5625 0 L 3.421875 0 L 3.421875 -36.3125 L 0 -44.84375 Z M 15.5625 -22.921875 C 17.476562 -22.921875 18.890625 -23.394531 19.796875 -24.34375 C 20.710938 -25.300781 21.171875 -26.984375 21.171875 -29.390625 C 21.171875 -31.304688 21.003906 -32.726562 20.671875 -33.65625 C 20.335938 -34.59375 19.765625 -35.226562 18.953125 -35.5625 C 18.148438 -35.894531 17.019531 -36.0625 15.5625 -36.0625 Z M 15.5625 -22.921875 "/></g></g></g></svg>